<?xml version="1.0" encoding="UTF-8"?>
<svg version="1.1" xmlns="http://www.w3.org/2000/svg" width="896" height="194">
<path d="M0 0 C0.69480469 0.51949219 1.38960937 1.03898437 2.10546875 1.57421875 C6.64808328 5.17385541 10.15391977 9.45799357 13.625 14.0625 C14.087854 14.65240723 14.55070801 15.24231445 15.02758789 15.85009766 C16.2890625 17.59765625 16.2890625 17.59765625 18 21 C17.45703125 23.9140625 17.45703125 23.9140625 16 27 C15.51991538 28.34581927 15.053241 29.6964721 14.59765625 31.05078125 C14.08723647 32.47182141 13.57549755 33.89238838 13.0625 35.3125 C12.81048828 36.04017578 12.55847656 36.76785156 12.29882812 37.51757812 C11.62036758 39.37944045 10.81811995 41.19513995 10 43 C9.01 43.33 8.02 43.66 7 44 C6.525625 42.88625 6.05125 41.7725 5.5625 40.625 C0.36171424 30.40464054 -7.33833573 23.99114657 -18 20 C-30.07363474 16.36378837 -41.68794381 17.48414151 -52.875 23.375 C-56.46472987 25.52373706 -59.25310406 27.80766148 -62 31 C-62.49242188 31.56332031 -62.98484375 32.12664062 -63.4921875 32.70703125 C-72.05898421 43.17045708 -73.51675802 55.25856152 -72.81640625 68.4609375 C-71.52488573 79.67186816 -66.74612335 88.26976151 -58.5703125 95.98828125 C-47.82605095 104.39754371 -36.2377298 106.20075305 -23 105 C-11.76564092 102.60825689 -3.90614337 95.88790625 3 87 C4.20329027 84.59341946 4.23365156 82.8394496 4.39453125 80.15234375 C6.19958505 53.14909075 11.88540408 22.05888444 33 3 C49.95754117 -11.39057393 70.23410419 -16.17604162 91.98046875 -16.265625 C95 -16 95 -16 97 -14 C96.01 -13.67 95.02 -13.34 94 -13 C94 -12.34 94 -11.68 94 -11 C92.53125 -9.625 92.53125 -9.625 90.5 -8 C75.46588324 4.94677893 65.9176289 24.34621471 64.38037109 44.03417969 C63.34320298 57.29417704 59.58357967 67.84700723 49.47265625 77.16015625 C42.50572076 82.34408455 34.88884218 85.16534336 26.25 85.0625 C24.77273437 85.04896484 24.77273437 85.04896484 23.265625 85.03515625 C22.51796875 85.02355469 21.7703125 85.01195313 21 85 C19.94390267 61.80497349 27.66662785 37.61355034 43 20 C45.27227779 17.59901897 47.59781557 15.27075792 50 13 C32.44535779 24.76687189 23.34478356 42.75846889 19.1875 63 C15.55074022 82.74870765 14.17846971 106.69295642 24 125 C24.53625 125.70511719 25.0725 126.41023437 25.625 127.13671875 C27 129 27 129 27 131 C27.66 131 28.32 131 29 131 C28.67 131.99 28.34 132.98 28 134 C25.05859375 134.94921875 25.05859375 134.94921875 21.4375 135.6875 C19.64119141 136.06455078 19.64119141 136.06455078 17.80859375 136.44921875 C16.41833984 136.72185547 16.41833984 136.72185547 15 137 C11.66270094 132.49885294 10.03309606 128.55186529 8.75 123.125 C8.57726562 122.43664062 8.40453125 121.74828125 8.2265625 121.0390625 C7.80728358 119.36194682 7.40214456 117.68130651 7 116 C6.67 116.66 6.34 117.32 6 118 C5.34 118 4.68 118 4 118 C3.67 118.99 3.34 119.98 3 121 C-16.62913874 138.81235729 -40.31530051 142.04710636 -65.81030273 141.22387695 C-72.72938498 140.7382437 -78.68917426 138.86855715 -85 136 C-86.28921632 135.53481885 -87.58101487 135.07674629 -88.875 134.625 C-93.52671638 132.91937066 -97.73434205 130.49817468 -102 128 C-102 127.34 -102 126.68 -102 126 C-102.66 125.814375 -103.32 125.62875 -104 125.4375 C-111.41217973 121.88583055 -116.43133181 115.64759895 -121 109 C-121.50402344 108.31164062 -122.00804687 107.62328125 -122.52734375 106.9140625 C-134.36874655 90.22160155 -138.07362283 69.09450336 -135.4921875 49.05859375 C-131.75825025 28.13566951 -121.42561766 9.31963384 -104.12890625 -3.37304688 C-72.62002151 -24.79779979 -29.80109281 -24.09753437 0 0 Z M-104 20 C-114.17958618 32.03895709 -119.89051256 48.52943271 -119.28515625 64.34765625 C-117.33096355 82.52432538 -110.44178099 99.1554563 -96 111 C-92.43520361 113.5210497 -88.76979194 115.79958287 -85 118 C-83.99646484 118.60521484 -83.99646484 118.60521484 -82.97265625 119.22265625 C-73.89265223 124.27136885 -63.95710563 125.26340922 -53.75 125.3125 C-52.92274414 125.31797852 -52.09548828 125.32345703 -51.24316406 125.32910156 C-45.61132969 125.26390268 -40.44384689 124.42798807 -35 123 C-35 122.34 -35 121.68 -35 121 C-35.99386719 121.04382813 -36.98773438 121.08765625 -38.01171875 121.1328125 C-42.22373779 120.99254938 -45.83821006 120.16010551 -49.8125 118.875 C-50.50883545 118.65489258 -51.2051709 118.43478516 -51.92260742 118.20800781 C-57.06878804 116.4991684 -61.5593809 114.25466474 -66.08203125 111.234375 C-68.08255892 109.83497911 -68.08255892 109.83497911 -71 109 C-71.70441149 107.68621666 -72.36666731 106.3494858 -73 105 C-74.04900201 103.76174505 -75.13555747 102.55470268 -76.25 101.375 C-87.57620096 88.49468415 -91.04171518 73.24081056 -90.390625 56.375 C-89.72179376 46.80817337 -87.01757611 37.20417708 -82 29 C-81.58105469 28.27554688 -81.16210938 27.55109375 -80.73046875 26.8046875 C-73.33064665 14.77742844 -61.06622984 6.40387578 -47.3359375 3.125 C-45.28504932 2.81173784 -43.22568446 2.54616139 -41.16015625 2.3515625 C-40.44730469 2.23554687 -39.73445313 2.11953125 -39 2 C-38.67 1.34 -38.34 0.68 -38 0 C-63.13332199 -5.35158187 -86.51524103 0.93786981 -104 20 Z " fill="#F8A51D" transform="translate(152,41)"/>
<path d="M0 0 C1.3265891 0.35923563 2.6589808 0.69907412 4 1 C4 -0.32 4 -1.64 4 -3 C6.97 -3 9.94 -3 13 -3 C13.10197178 4.77372957 13.17170477 12.54728468 13.21972656 20.3215332 C13.23975996 22.96254929 13.26699451 25.60352149 13.30175781 28.24438477 C13.350639 32.05496091 13.37305267 35.86494721 13.390625 39.67578125 C13.41127014 40.84393875 13.43191528 42.01209625 13.45318604 43.21565247 C13.4553564 51.2637718 12.63727483 59.47198617 7.41680908 65.97090149 C1.59721514 71.74251908 -6.14026574 73.14115397 -14.0625 73.3125 C-23.42660554 73.01313601 -30.79196689 71.36988972 -38 65 C-39.25390625 62.8046875 -39.25390625 62.8046875 -40 61 C-38.02 58.525 -38.02 58.525 -36 56 C-33.51909864 57.1450314 -31.47330759 58.38304903 -29.25 60 C-23.03066907 63.82728057 -16.23483469 64.81927571 -9 64 C-5.15699679 63.08276753 -2.07620804 62.16016753 0.65234375 59.21875 C2.18357545 56.69776563 2.69170115 54.64851638 3.1875 51.75 C3.34605469 50.85796875 3.50460937 49.9659375 3.66796875 49.046875 C3.77753906 48.37140625 3.88710938 47.6959375 4 47 C1.64814247 46.83170556 1.64814247 46.83170556 -1.3125 48.9375 C-8.39186404 52.53499897 -16.67839501 52.91366277 -24.3125 50.9375 C-31.6714969 48.3050133 -37.25502903 43.91379256 -41 37 C-44.07272628 29.02872457 -44.29089293 20.554925 -41.3125 12.5 C-38.0484232 5.46005735 -32.66349224 1.62449369 -26 -2 C-17.68093365 -4.77302212 -7.80838324 -3.68319964 0 0 Z M-30.875 11.875 C-34.68885432 17.4836093 -35.46757258 21.82938862 -34.59765625 28.46875 C-33.29808749 33.97280593 -30.52351694 38.34026459 -25.75 41.4375 C-19.99914134 44.22579511 -14.37044472 44.65419905 -8.25 42.875 C-2.46180054 40.65652634 1.44289008 36.62564183 4 31 C5.62354762 24.60572015 5.21804737 18.82313333 2 13 C-1.88421523 8.52262875 -6.28815777 5.41242691 -12.25 4.75 C-19.83174579 4.38015874 -25.70697182 6.14948773 -30.875 11.875 Z " fill="#FDFDFD" transform="translate(535,73)"/>
<path d="M0 0 C8.68911439 6.221835 13.9414964 14.47376482 15.93359375 24.97265625 C17.43946759 35.81122969 14.97168638 45.75514182 9.0390625 54.9609375 C1.57788091 64.50734015 -9.61187634 68.64343952 -21.31640625 70.1875 C-31.08231386 70.36526396 -41.17594404 66.3471828 -48.75 60.25 C-55.1264601 53.73839335 -59.99819828 45.45957112 -60.75 36.25 C-60.81316406 35.54617187 -60.87632812 34.84234375 -60.94140625 34.1171875 C-61.42812875 24.351336 -58.7239017 14.49635202 -52.375 6.95703125 C-38.66794255 -7.441969 -17.14458496 -10.63362317 0 0 Z M-45.75 12.25 C-51.4387485 20.7683083 -52.5907828 28.04049459 -51.75 38.25 C-49.82600096 45.87645403 -44.90461484 52.39281607 -38.4609375 56.82421875 C-30.49034372 61.23967467 -21.79057863 62.4761168 -12.94140625 60.1015625 C-4.66435343 56.88516764 2.43379539 50.75932126 6.125 42.625 C8.85252289 34.19744425 8.07793619 25.28052055 4.37109375 17.328125 C0.49511796 10.14338939 -5.65042383 5.9201977 -13.125 2.875 C-25.07191168 0.81518764 -37.52613222 2.50557333 -45.75 12.25 Z " fill="#FDFDFD" transform="translate(300.75,57.75)"/>
<path d="M0 0 C7.19523422 0.193669 7.19523422 0.193669 10.34472656 0.29541016 C12.55453537 0.36479681 14.76437228 0.41964355 16.97460938 0.47338867 C28.35669137 0.7943903 39.00308512 1.2166382 47.63085938 9.5378418 C53.26095646 15.9252034 53.62887033 22.10054246 53.39648438 30.31518555 C52.91161335 36.26417999 51.56886549 40.52048241 47.36132812 44.82299805 C38.48229361 52.10699642 29.1464001 52.47146495 18.02929688 52.2409668 C16.78212891 52.22743164 15.53496094 52.21389648 14.25 52.19995117 C11.19707682 52.1648601 8.14437842 52.11106268 5.09179688 52.0534668 C5.09179688 59.6434668 5.09179688 67.2334668 5.09179688 75.0534668 C1.25560263 76.01251536 -0.23251848 75.97238796 -3.90820312 75.0534668 C-3.93132777 65.42233968 -3.94911883 55.79122206 -3.9600153 46.16007328 C-3.96524386 41.68841131 -3.97234102 37.21676826 -3.98364258 32.74511719 C-3.99447241 28.43334707 -4.00048016 24.12159521 -4.00308037 19.80981255 C-4.00493444 18.16110382 -4.00855472 16.51239614 -4.01393318 14.86369514 C-4.02114491 12.56242808 -4.02219401 10.2612374 -4.02172852 7.95996094 C-4.02394913 6.6475795 -4.02616974 5.33519806 -4.02845764 3.98304749 C-3.86787899 0.07111027 -3.86787899 0.07111027 0 0 Z M5.09179688 9.0534668 C5.09179688 20.6034668 5.09179688 32.1534668 5.09179688 44.0534668 C11.03179688 44.1462793 11.03179688 44.1462793 17.09179688 44.2409668 C18.9403125 44.28193481 18.9403125 44.28193481 20.82617188 44.32373047 C28.70468493 44.38304894 34.69317115 43.86102717 40.96679688 38.6784668 C44.74689166 34.00893794 45.49857743 30.16327257 45.34179688 24.2644043 C44.84251782 19.84890512 43.02282959 17.04092574 40.02929688 13.8659668 C32.34492047 9.12454306 24.28987665 8.63809661 15.46679688 8.8659668 C12.04304687 8.9278418 8.61929688 8.9897168 5.09179688 9.0534668 Z " fill="#FDFDFD" transform="translate(627.908203125,50.946533203125)"/>
<path d="M0 0 C0.66 0.33 1.32 0.66 2 1 C2.33 -0.65 2.66 -2.3 3 -4 C5.97 -4 8.94 -4 12 -4 C12 14.81 12 33.62 12 53 C9.03 52.67 6.06 52.34 3 52 C2.505 50.02 2.505 50.02 2 48 C1.360625 48.268125 0.72125 48.53625 0.0625 48.8125 C-1.4534375 49.4003125 -1.4534375 49.4003125 -3 50 C-4.01707031 50.39638672 -4.01707031 50.39638672 -5.0546875 50.80078125 C-13.78638628 53.98830451 -21.47878619 53.82778335 -30 50 C-37.40360638 45.07698339 -41.82722417 38.74057396 -43.68359375 30.02734375 C-45.05093872 21.26620743 -43.38271245 13.02342047 -38.3125 5.6875 C-28.84939394 -5.9702915 -12.67408109 -7.37347241 0 0 Z M-30.5703125 9.71875 C-35.32966535 16.13707727 -35.70813296 22.14072155 -35 30 C-33.30685916 35.92115539 -30.05590822 39.62939452 -25 43 C-19.5318052 45.26981671 -14.68353698 45.43125566 -9 44 C-2.88738262 40.77069271 0.79428936 36.52287077 3 30 C3.76794293 23.52606251 3.68409007 17.41379727 0.34375 11.6875 C-2.69643338 7.86959529 -6.41172286 5.52942571 -11 4 C-18.50978173 3.18632916 -25.25919544 3.90558705 -30.5703125 9.71875 Z " fill="#FDFDFD" transform="translate(403,74)"/>
<path d="M0 0 C1.88872185 1.09662581 1.88872185 1.09662581 4.76953125 0.875 C4.76953125 -0.445 4.76953125 -1.765 4.76953125 -3.125 C7.73953125 -3.125 10.70953125 -3.125 13.76953125 -3.125 C14.09953125 15.355 14.42953125 33.835 14.76953125 52.875 C11.70062938 54.40945094 9.06858859 53.42484289 5.76953125 52.875 C5.10953125 51.225 4.44953125 49.575 3.76953125 47.875 C2.75890625 48.49375 1.74828125 49.1125 0.70703125 49.75 C-7.04011617 54.1369389 -14.60920986 54.92857218 -23.16796875 52.875 C-29.78070326 50.69452976 -34.80866508 46.53446577 -38.64453125 40.73828125 C-42.58824283 32.83667208 -43.13071963 23.81271748 -41.07421875 15.2890625 C-38.21287576 7.10244227 -32.89191821 1.77537427 -25.23046875 -2.125 C-17.12447654 -4.90663522 -7.42242104 -4.08729878 0 0 Z M3.76953125 2.875 C4.42953125 3.535 5.08953125 4.195 5.76953125 4.875 C5.76953125 4.215 5.76953125 3.555 5.76953125 2.875 C5.10953125 2.875 4.44953125 2.875 3.76953125 2.875 Z M-30.23046875 12.875 C-33.60910804 18.70024016 -34.08364414 24.21256298 -33.23046875 30.875 C-31.45993704 36.78677537 -28.30907076 40.48926533 -23.23046875 43.875 C-17.75717733 46.14693229 -12.9188346 46.29969126 -7.23046875 44.875 C-1.72809277 42.01799709 2.57964654 38.30943997 4.62890625 32.39453125 C6.36714961 24.87980845 5.58000973 18.71924291 1.6953125 12.0234375 C-1.27054383 8.02298012 -4.53101383 6.2617244 -9.23046875 4.875 C-18.21981392 3.84764627 -24.27435994 5.7920598 -30.23046875 12.875 Z " fill="#FDFDFD" transform="translate(839.23046875,73.125)"/>
<path d="M0 0 C5.69868266 4.15594536 9.75374205 9.53020179 11.12109375 16.546875 C11.17989316 19.2147798 11.14035178 21.87794811 11.12109375 24.546875 C9.95537842 24.77874512 8.78966309 25.01061523 7.58862305 25.24951172 C3.26547642 26.11125595 -1.05586237 26.9817833 -5.37670898 27.85498047 C-7.24732059 28.23173128 -9.11841443 28.60609594 -10.98999023 28.97802734 C-13.67952631 29.51293905 -16.3672134 30.05639811 -19.0546875 30.6015625 C-19.89228104 30.76623016 -20.72987457 30.93089783 -21.59284973 31.10055542 C-22.37343246 31.26057037 -23.1540152 31.42058533 -23.95825195 31.58544922 C-24.64442093 31.72312714 -25.3305899 31.86080505 -26.03755188 32.00265503 C-28.18891942 32.53968488 -28.18891942 32.53968488 -30.87890625 34.546875 C-27.38062853 39.55421369 -24.21378277 42.55213595 -18.24609375 44.1796875 C-11.85084994 45.17168901 -6.39035139 43.92889815 -0.87890625 40.546875 C0.81969042 39.25446449 2.49718898 37.93197025 4.12109375 36.546875 C5.77109375 38.196875 7.42109375 39.846875 9.12109375 41.546875 C6.81134627 47.42623222 1.68189951 50.11402248 -3.87890625 52.546875 C-11.73225966 54.88165574 -20.53266851 54.06858286 -27.87890625 50.546875 C-35.03015899 45.66961773 -40.17028546 40.17420676 -41.87890625 31.546875 C-42.91443218 21.97376822 -42.23501317 13.40392032 -36.37109375 5.51953125 C-26.97544275 -4.81568485 -12.1608432 -7.10880161 0 0 Z M-30.62109375 12.49609375 C-32.73059443 15.93549704 -33.35828784 19.58837984 -33.87890625 23.546875 C-24.01159529 26.83597865 -7.91692164 20.60852123 2.12109375 18.546875 C0.32029374 12.8206469 -1.46426808 9.21412517 -6.50390625 5.734375 C-16.13160992 2.34684964 -24.19659654 4.64206183 -30.62109375 12.49609375 Z " fill="#FDFDFD" transform="translate(600.87890625,73.453125)"/>
<path d="M0 0 C5.99009707 4.48985498 10.8175943 10.10531558 12.15234375 17.61328125 C13.12059569 28.53032189 11.95135652 35.80302642 6.02734375 44.86328125 C-0.47409766 51.08205129 -8.44972262 53.97056634 -17.34765625 53.82421875 C-25.15337599 53.16561115 -31.72450365 50.66199068 -36.84765625 44.61328125 C-42.75780627 35.77108278 -43.64890919 28.20126658 -42.84765625 17.61328125 C-41.01689329 9.44102009 -36.75484552 3.96768852 -29.921875 -0.703125 C-20.84455724 -5.60932123 -8.81639579 -5.20768803 0 0 Z M-30.72265625 11.48828125 C-34.42846749 16.93800366 -35.63576559 22.04980816 -34.84765625 28.61328125 C-33.25123707 35.36064668 -30.06111462 39.11392474 -24.59765625 43.36328125 C-18.82930196 45.98526047 -13.69155118 46.22755156 -7.66015625 44.23828125 C-2.18315471 41.79837091 0.61105957 37.93966285 3.15234375 32.61328125 C5.05922661 26.48317929 4.71120822 20.39185068 2.265625 14.50390625 C-0.22375772 10.27632297 -4.04649596 7.65605826 -8.22265625 5.23828125 C-16.89236131 3.17406576 -24.62254274 4.71037735 -30.72265625 11.48828125 Z " fill="#FDFDFD" transform="translate(764.84765625,73.38671875)"/>
<path d="M0 0 C0.625 2.0625 0.625 2.0625 1 4 C1.47566406 3.71125 1.95132812 3.4225 2.44140625 3.125 C10.22645569 -1.004087 18.99324001 -1.48315061 27.53125 0.625 C32.84153247 2.9125063 36.09736287 7.1087049 39 12 C39.91035504 14.73106511 40.12215713 16.29893239 40.11352539 19.10424805 C40.11344986 19.92487228 40.11337433 20.74549652 40.11329651 21.59098816 C40.10813522 22.47232925 40.10297394 23.35367035 40.09765625 24.26171875 C40.0962413 25.16751175 40.09482635 26.07330475 40.09336853 27.00654602 C40.08777001 29.90023091 40.07521781 32.79383849 40.0625 35.6875 C40.05748481 37.64908742 40.05292193 39.61067606 40.04882812 41.57226562 C40.03780107 46.38154021 40.02053747 51.190757 40 56 C37.36 56.33 34.72 56.66 32 57 C30.44131519 53.88263038 30.94190377 50.59130656 31.0078125 47.17578125 C31.02534241 45.57357419 31.04224937 43.97136022 31.05859375 42.36914062 C31.08944341 39.8455893 31.12481756 37.32238513 31.17138672 34.79907227 C31.21401039 32.36209952 31.23725427 29.9255272 31.2578125 27.48828125 C31.27643341 26.7432283 31.29505432 25.99817535 31.3142395 25.23054504 C31.33911978 20.08950347 30.42520904 16.55906167 28 12 C23.14596405 8.32987525 17.84951951 8.21464784 12 9 C8.20704808 10.03267013 5.11738937 11.42927303 2.79241943 14.69750977 C0.23904129 19.72514327 -0.59986123 23.82905175 -0.609375 29.4375 C-0.62591125 30.20304199 -0.64244751 30.96858398 -0.65948486 31.75732422 C-0.70757106 34.17163424 -0.72924617 36.58531645 -0.75 39 C-0.7781929 40.64977051 -0.80812491 42.29951227 -0.83984375 43.94921875 C-0.91331815 47.96609401 -0.96313172 51.98262879 -1 56 C-3.64 56 -6.28 56 -9 56 C-9 37.52 -9 19.04 -9 0 C-2 -1 -2 -1 0 0 Z " fill="#FEFEFE" transform="translate(441,70)"/>
<path d="M0 0 C0.625 2.0625 0.625 2.0625 1 4 C2.11375 3.34 3.2275 2.68 4.375 2 C9.25057105 -0.48147344 13.63783386 -0.39556963 19 0 C19 2.64 19 5.28 19 8 C18.33613281 8.12117188 17.67226563 8.24234375 16.98828125 8.3671875 C10.23759804 9.44810077 10.23759804 9.44810077 4 12 C2.67518454 14.39529669 2.67518454 14.39529669 2 17 C1.67 17.99 1.34 18.98 1 20 C0.84629652 22.72883073 0.74271735 25.43697142 0.68359375 28.16796875 C0.66281265 28.96278152 0.64203156 29.7575943 0.62062073 30.57649231 C0.55527913 33.11340763 0.49631192 35.65042573 0.4375 38.1875 C0.39430014 39.90821372 0.35068537 41.62891708 0.30664062 43.34960938 C0.19961352 47.56630113 0.09830276 51.7830962 0 56 C-2.97 56 -5.94 56 -9 56 C-9 37.52 -9 19.04 -9 0 C-2 -1 -2 -1 0 0 Z " fill="#FEFEFE" transform="translate(337,70)"/>
<path d="M0 0 C3.15353333 4.2047111 3.36246719 4.85091857 3.1875 9.75 C3.16042969 10.73484375 3.13335937 11.7196875 3.10546875 12.734375 C3.07066406 13.48203125 3.03585938 14.2296875 3 15 C3.66 15 4.32 15 5 15 C4.95875 14.05125 4.9175 13.1025 4.875 12.125 C5 9 5 9 7 7 C7.33 8.98 7.66 10.96 8 13 C9.32 13.33 10.64 13.66 12 14 C11.690625 14.515625 11.38125 15.03125 11.0625 15.5625 C9.70940713 18.66665423 9.38640576 21.65115007 9 25 C9.66 25 10.32 25 11 25 C11.33 27.64 11.66 30.28 12 33 C13.485 32.505 13.485 32.505 15 32 C15.73323796 29.98491642 15.73323796 29.98491642 16 28 C16.66 28 17.32 28 18 28 C18.18175781 28.71027344 18.36351563 29.42054687 18.55078125 30.15234375 C18.80214844 31.07144531 19.05351563 31.99054688 19.3125 32.9375 C19.55613281 33.85402344 19.79976562 34.77054688 20.05078125 35.71484375 C20.36402344 36.46894531 20.67726563 37.22304687 21 38 C22.485 38.495 22.485 38.495 24 39 C23.67 40.98 23.34 42.96 23 45 C22.34 45 21.68 45 21 45 C21 45.99 21 46.98 21 48 C21.66 48 22.32 48 23 48 C23.33 48.66 23.66 49.32 24 50 C25.485 50.495 25.485 50.495 27 51 C26.67 50.236875 26.34 49.47375 26 48.6875 C25 46 25 46 25 43 C26.32 43 27.64 43 29 43 C29 43.66 29 44.32 29 45 C31.53069243 47.63613795 33.60994523 48.18684057 37.125 48.5 C38.40375 48.665 39.6825 48.83 41 49 C41.66 49.99 42.32 50.98 43 52 C50.67750464 54.91745176 58.91336271 54.17664984 67 54 C67 54.66 67 55.32 67 56 C66.34 56 65.68 56 65 56 C65 56.66 65 57.32 65 58 C60.05 58 55.1 58 50 58 C49.505 58.99 49.505 58.99 49 60 C46.67711188 60.39310414 44.38154824 60.50749695 42.03125 60.65625 C41.3609375 60.7696875 40.690625 60.883125 40 61 C39.505 61.99 39.505 61.99 39 63 C38.29875 62.67 37.5975 62.34 36.875 62 C33.73996884 60.90955438 31.29436818 60.84677357 28 61 C28 59.35 28 57.7 28 56 C26.02 56.495 26.02 56.495 24 57 C23.67 56.34 23.34 55.68 23 55 C23.33 54.34 23.66 53.68 24 53 C23.34 52.67 22.68 52.34 22 52 C21.67 51.34 21.34 50.68 21 50 C20.01 50 19.02 50 18 50 C17.34 48.02 16.68 46.04 16 44 C16.33 44.99 16.66 45.98 17 47 C16.34 47.99 15.68 48.98 15 50 C14.01 49.67 13.02 49.34 12 49 C12 47.68 12 46.36 12 45 C11.34 45 10.68 45 10 45 C10.33 43.35 10.66 41.7 11 40 C10.34 40 9.68 40 9 40 C9 39.34 9 38.68 9 38 C8.01 38 7.02 38 6 38 C6.350625 37.13375 6.70125 36.2675 7.0625 35.375 C8.08071531 31.70942487 7.99268764 29.6398547 7 26 C6.34 25.34 5.68 24.68 5 24 C5 23.01 5 22.02 5 21 C3.68 21 2.36 21 1 21 C1.33 18.69 1.66 16.38 2 14 C1.34 14 0.68 14 0 14 C0 9.38 0 4.76 0 0 Z " fill="#F9A412" transform="translate(63,94)"/>
<path d="M0 0 C3 2 3 2 3.4375 4 C3.623125 4.66 3.80875 5.32 4 6 C4.66 6.309375 5.32 6.61875 6 6.9375 C6.99 7.4634375 6.99 7.4634375 8 8 C8.75 10.625 8.75 10.625 9 13 C10.32 13 11.64 13 13 13 C13 14.65 13 16.3 13 18 C14.258125 17.79375 15.51625 17.5875 16.8125 17.375 C20.4014758 16.78664331 20.75073878 16.83382585 24 19 C24.53625 18.67 25.0725 18.34 25.625 18 C28.5391061 16.77300796 30.86867708 16.85766714 34 17 C34.495 15.515 34.495 15.515 35 14 C39.95 14.33 44.9 14.66 50 15 C49.67 15.99 49.34 16.98 49 18 C42.73 18.33 36.46 18.66 30 19 C30.495 19.99 30.495 19.99 31 21 C32.89533342 21.46523063 32.89533342 21.46523063 35.0625 21.625 C36.361875 21.74875 37.66125 21.8725 39 22 C39 22.66 39 23.32 39 24 C39.66 24 40.32 24 41 24 C41 24.66 41 25.32 41 26 C42.65 25.34 44.3 24.68 46 24 C46 23.34 46 22.68 46 22 C47.32 22.33 48.64 22.66 50 23 C49.67 23.66 49.34 24.32 49 25 C48.34 25 47.68 25 47 25 C47 25.66 47 26.32 47 27 C48.98 26.34 50.96 25.68 53 25 C53 25.99 53 26.98 53 28 C52.01 28.66 51.02 29.32 50 30 C50.60328125 29.89300781 51.2065625 29.78601563 51.828125 29.67578125 C58.45126354 28.68231047 58.45126354 28.68231047 61.375 30.375 C61.91125 30.91125 62.4475 31.4475 63 32 C64.485 32.495 64.485 32.495 66 33 C46.37319604 43.75298302 27.49276139 47.37733245 5 45 C4.01 44.34 3.02 43.68 2 43 C3.10456543 43.02356567 3.10456543 43.02356567 4.23144531 43.04760742 C7.57088529 43.11000472 10.91020255 43.14900618 14.25 43.1875 C15.98830078 43.22520508 15.98830078 43.22520508 17.76171875 43.26367188 C18.87675781 43.27333984 19.99179688 43.28300781 21.140625 43.29296875 C22.68024902 43.31653442 22.68024902 43.31653442 24.25097656 43.34057617 C27.40549989 42.94976267 28.78661158 42.26134738 31 40 C31 39.01 31 38.02 31 37 C32.32 37 33.64 37 35 37 C35 37.66 35 38.32 35 39 C36.32 39.33 37.64 39.66 39 40 C38.34 40 37.68 40 37 40 C37 40.66 37 41.32 37 42 C38.98 41.505 38.98 41.505 41 41 C40.67 40.34 40.34 39.68 40 39 C41.32 39 42.64 39 44 39 C44 38.34 44 37.68 44 37 C41.03 36.67 38.06 36.34 35 36 C34.67 35.01 34.34 34.02 34 33 C37.96 33 41.92 33 46 33 C46 32.34 46 31.68 46 31 C41.22295234 29.8626077 38.57339494 30.40925393 34 32 C32.66277609 31.68263413 31.33003633 31.34625461 30 31 C27.96131193 30.89864997 25.92000193 30.84541504 23.87890625 30.82421875 C22.69619141 30.80037109 21.51347656 30.77652344 20.29492188 30.75195312 C17.81072071 30.70905483 15.32629139 30.67776607 12.84179688 30.65820312 C11.65779297 30.63048828 10.47378906 30.60277344 9.25390625 30.57421875 C8.17439697 30.55963623 7.0948877 30.54505371 5.98266602 30.5300293 C2.36827111 29.88773975 0.65469095 28.47215982 -2 26 C-1.36578125 26.144375 -0.7315625 26.28875 -0.078125 26.4375 C6.7131936 27.7882595 13.28630115 28.19262529 20.1875 28.1875 C21.43321777 28.1884668 21.43321777 28.1884668 22.70410156 28.18945312 C28.20015928 28.14152872 33.54679237 27.68507634 39 27 C39 26.34 39 25.68 39 25 C37.50919922 25.31130859 37.50919922 25.31130859 35.98828125 25.62890625 C31.75819183 26.2253074 28.18671451 25.28268593 24.1875 23.9375 C23.48971436 23.70998047 22.79192871 23.48246094 22.07299805 23.24804688 C12.62773853 20.02501993 4.61030597 15.41545895 -1 7 C-0.649375 6.401875 -0.29875 5.80375 0.0625 5.1875 C1.33304698 2.89186786 1.33304698 2.89186786 0 0 Z " fill="#F6A629" transform="translate(78,137)"/>
<path d="M0 0 C2 3 2 3 3 5 C4.11375 4.360625 5.2275 3.72125 6.375 3.0625 C11.14645698 0.64256752 15.71244433 0.2167031 21 0 C21 2.97 21 5.94 21 9 C20.26394531 9.09796875 19.52789063 9.1959375 18.76953125 9.296875 C11.01023577 10.34625113 11.01023577 10.34625113 5 15 C2.50981514 20.6604478 1.5424987 25.29200085 1.48828125 31.4375 C1.47033005 32.20304199 1.45237885 32.96858398 1.43388367 33.75732422 C1.38026045 36.17149556 1.34604177 38.58547485 1.3125 41 C1.27928432 42.64976605 1.24479081 44.2995069 1.20898438 45.94921875 C1.1245628 49.96600605 1.05752562 53.98274117 1 58 C-2.96 57.505 -2.96 57.505 -7 57 C-7.33 38.52 -7.66 20.04 -8 1 C-5.36 0.67 -2.72 0.34 0 0 Z " fill="#FDFDFD" transform="translate(698,69)"/>
<path d="M0 0 C0.05062418 7.63546931 0.08570152 15.2708955 0.10986328 22.90649414 C0.11993368 25.50514341 0.13359071 28.10378131 0.15087891 30.70239258 C0.17508139 34.43313397 0.18647266 38.16372581 0.1953125 41.89453125 C0.20563507 43.06023148 0.21595764 44.2259317 0.22659302 45.42695618 C0.22674408 46.50785019 0.22689514 47.5887442 0.22705078 48.70239258 C0.231492 49.65503494 0.23593323 50.60767731 0.24050903 51.58918762 C0 54 0 54 -2 57 C-4.31 56.67 -6.62 56.34 -9 56 C-9 37.52 -9 19.04 -9 0 C-3.375 -1.125 -3.375 -1.125 0 0 Z " fill="#FEFEFE" transform="translate(879,70)"/>
<path d="M0 0 C0.33 0 0.66 0 1 0 C2.31626692 3.61973402 3 6.09567131 3 10 C2.01 10 1.02 10 0 10 C-0.16687448 12.41645782 -0.16687448 12.41645782 0 15 C0.66 15.66 1.32 16.32 2 17 C2.33 15.35 2.66 13.7 3 12 C4.65 12 6.3 12 8 12 C8 12.66 8 13.32 8 14 C8.66 14 9.32 14 10 14 C10 15.32 10 16.64 10 18 C7.69 18.33 5.38 18.66 3 19 C3.99 20.32 4.98 21.64 6 23 C6.33 22.01 6.66 21.02 7 20 C8.65 20 10.3 20 12 20 C12.66 21.65 13.32 23.3 14 25 C13.01 25 12.02 25 11 25 C11 25.99 11 26.98 11 28 C13.31 28.33 15.62 28.66 18 29 C18.33 30.65 18.66 32.3 19 34 C18.34 34 17.68 34 17 34 C16.67 34.66 16.34 35.32 16 36 C15.34 36 14.68 36 14 36 C14 36.99 14 37.98 14 39 C17.465 39.495 17.465 39.495 21 40 C21 40.66 21 41.32 21 42 C20.34 42 19.68 42 19 42 C19 43.32 19 44.64 19 46 C16.525 46.495 16.525 46.495 14 47 C14.33 45.35 14.66 43.7 15 42 C14.34 42 13.68 42 13 42 C10.875 40.25 10.875 40.25 9 38 C9 36.68 9 35.36 9 34 C9.66 34 10.32 34 11 34 C11 33.34 11 32.68 11 32 C9.02 32.495 9.02 32.495 7 33 C7 32.01 7 31.02 7 30 C5.02 30.33 3.04 30.66 1 31 C0.67 29.02 0.34 27.04 0 25 C-1.32 24.67 -2.64 24.34 -4 24 C-4.42990701 15.91137922 -3.49296982 8.72433135 -1 1 C-0.67 0.67 -0.34 0.34 0 0 Z " fill="#F9A511" transform="translate(27,112)"/>
<path d="M0 0 C0.66 0 1.32 0 2 0 C2.12375 1.2375 2.2475 2.475 2.375 3.75 C2.75746305 6.8762197 3.30549523 9.28879237 5 12 C5.66 12 6.32 12 7 12 C7 14.64 7 17.28 7 20 C6.34 20.33 5.68 20.66 5 21 C4.53348793 23.12576782 4.53348793 23.12576782 4.375 25.5625 C4.30023438 26.38878906 4.22546875 27.21507813 4.1484375 28.06640625 C4.09945313 28.70449219 4.05046875 29.34257813 4 30 C3.01 29.67 2.02 29.34 1 29 C1 27.02 1 25.04 1 23 C0.34 23.66 -0.32 24.32 -1 25 C-1.02308597 27.22128555 -1.02308597 27.22128555 -0.625 29.625 C-0.51414062 30.44226563 -0.40328125 31.25953125 -0.2890625 32.1015625 C-0.19367187 32.72804687 -0.09828125 33.35453125 0 34 C-0.66 34 -1.32 34 -2 34 C-2 35.32 -2 36.64 -2 38 C-3.32 37.67 -4.64 37.34 -6 37 C-6 36.01 -6 35.02 -6 34 C-5.01 34 -4.02 34 -3 34 C-3 32.35 -3 30.7 -3 29 C-3.66 29 -4.32 29 -5 29 C-5.33 30.32 -5.66 31.64 -6 33 C-6.66 33 -7.32 33 -8 33 C-7.96519531 31.73542969 -7.96519531 31.73542969 -7.9296875 30.4453125 C-7.91164063 29.34960938 -7.89359375 28.25390625 -7.875 27.125 C-7.85179687 26.03445312 -7.82859375 24.94390625 -7.8046875 23.8203125 C-7.69939466 20.8628949 -7.69939466 20.8628949 -10 19 C-9.34 18.34 -8.68 17.68 -8 17 C-7.64914306 14.76733751 -7.64914306 14.76733751 -7.5625 12.25 C-7.22125531 7.88965115 -6.29610293 4.79356136 -4 1 C-2.68 1.33 -1.36 1.66 0 2 C0 1.34 0 0.68 0 0 Z " fill="#F9A413" transform="translate(26,78)"/>
<path d="M0 0 C1.25296875 0.13921875 2.5059375 0.2784375 3.796875 0.421875 C5.06015625 0.55078125 6.3234375 0.6796875 7.625 0.8125 C8.58921875 0.93109375 9.5534375 1.0496875 10.546875 1.171875 C9.886875 2.491875 9.226875 3.811875 8.546875 5.171875 C9.206875 5.501875 9.866875 5.831875 10.546875 6.171875 C9.886875 6.171875 9.226875 6.171875 8.546875 6.171875 C8.27875 6.790625 8.010625 7.409375 7.734375 8.046875 C6.546875 10.171875 6.546875 10.171875 3.546875 12.171875 C3.216875 11.511875 2.886875 10.851875 2.546875 10.171875 C1.556875 10.666875 1.556875 10.666875 0.546875 11.171875 C0.753125 11.955625 0.959375 12.739375 1.171875 13.546875 C1.295625 14.413125 1.419375 15.279375 1.546875 16.171875 C0.886875 16.831875 0.226875 17.491875 -0.453125 18.171875 C-1.113125 17.841875 -1.773125 17.511875 -2.453125 17.171875 C-2.453125 18.161875 -2.453125 19.151875 -2.453125 20.171875 C-6.328125 18.296875 -6.328125 18.296875 -7.453125 17.171875 C-7.29972656 17.72359375 -7.14632812 18.2753125 -6.98828125 18.84375 C-6.40642229 21.37504883 -6.12877055 23.83629472 -5.890625 26.421875 C-5.80683594 27.31390625 -5.72304688 28.2059375 -5.63671875 29.125 C-5.57613281 29.80046875 -5.51554687 30.4759375 -5.453125 31.171875 C-6.113125 31.171875 -6.773125 31.171875 -7.453125 31.171875 C-7.948125 32.656875 -7.948125 32.656875 -8.453125 34.171875 C-9.443125 33.511875 -10.433125 32.851875 -11.453125 32.171875 C-11.123125 31.511875 -10.793125 30.851875 -10.453125 30.171875 C-9.793125 30.171875 -9.133125 30.171875 -8.453125 30.171875 C-8.783125 28.521875 -9.113125 26.871875 -9.453125 25.171875 C-10.443125 24.841875 -11.433125 24.511875 -12.453125 24.171875 C-12.453125 23.511875 -12.453125 22.851875 -12.453125 22.171875 C-13.443125 22.171875 -14.433125 22.171875 -15.453125 22.171875 C-15.783125 23.821875 -16.113125 25.471875 -16.453125 27.171875 C-17.443125 27.501875 -18.433125 27.831875 -19.453125 28.171875 C-19.828125 25.984375 -19.828125 25.984375 -19.453125 23.171875 C-17.49385437 21.4575132 -15.49432288 19.78782332 -13.453125 18.171875 C-13.453125 17.181875 -13.453125 16.191875 -13.453125 15.171875 C-13.453125 14.181875 -13.453125 13.191875 -13.453125 12.171875 C-12.793125 12.171875 -12.133125 12.171875 -11.453125 12.171875 C-11.453125 11.181875 -11.453125 10.191875 -11.453125 9.171875 C-10.793125 9.171875 -10.133125 9.171875 -9.453125 9.171875 C-9.123125 8.511875 -8.793125 7.851875 -8.453125 7.171875 C-8.453125 7.831875 -8.453125 8.491875 -8.453125 9.171875 C-5.813125 9.171875 -3.173125 9.171875 -0.453125 9.171875 C-0.453125 7.851875 -0.453125 6.531875 -0.453125 5.171875 C-1.113125 5.171875 -1.773125 5.171875 -2.453125 5.171875 C-2.783125 5.831875 -3.113125 6.491875 -3.453125 7.171875 C-4.773125 6.181875 -6.093125 5.191875 -7.453125 4.171875 C-5.03175028 1.01675037 -4.05878975 0.20202121 0 0 Z " fill="#F9A40F" transform="translate(42.453125,48.828125)"/>
<path d="M0 0 C0.99 0.66 1.98 1.32 3 2 C3 2.99 3 3.98 3 5 C3.66 5 4.32 5 5 5 C5.66 3.35 6.32 1.7 7 0 C8.32 0.33 9.64 0.66 11 1 C9.59452938 8.28625558 7.83285291 14.00625311 3.4296875 20.01953125 C1.59652422 22.55891317 0.30954314 25.16265653 -1 28 C-1.99 28 -2.98 28 -4 28 C-4.0825 28.94875 -4.165 29.8975 -4.25 30.875 C-5 34 -5 34 -7.0625 35.375 C-7.701875 35.58125 -8.34125 35.7875 -9 36 C-8.855625 35.236875 -8.71125 34.47375 -8.5625 33.6875 C-7.81832264 28.80900396 -7.41114251 23.91621465 -7 19 C-7.66 18.67 -8.32 18.34 -9 18 C-8.79503906 17.32453125 -8.59007812 16.6490625 -8.37890625 15.953125 C-8.10949219 15.06109375 -7.84007812 14.1690625 -7.5625 13.25 C-7.16224609 11.92742187 -7.16224609 11.92742187 -6.75390625 10.578125 C-6.11531506 8.39434165 -5.53224167 6.21164502 -5 4 C-4.1028125 4.4640625 -4.1028125 4.4640625 -3.1875 4.9375 C-0.91043228 6.10209704 -0.91043228 6.10209704 2 7 C2 6.34 2 5.68 2 5 C0.68 4.34 -0.64 3.68 -2 3 C-2 2.34 -2 1.68 -2 1 C-1.34 0.67 -0.68 0.34 0 0 Z " fill="#F7A517" transform="translate(179,55)"/>
<path d="M0 0 C0.97727552 2.93182656 1.27378273 5.58700992 1.54467773 8.6496582 C2.50619493 19.07085823 4.54799015 28.47883247 11 37 C11 37.66 11 38.32 11 39 C11.66 39 12.32 39 13 39 C12.67 39.99 12.34 40.98 12 42 C9.05859375 42.94921875 9.05859375 42.94921875 5.4375 43.6875 C4.23996094 43.93886719 3.04242188 44.19023437 1.80859375 44.44921875 C0.88175781 44.63097656 -0.04507813 44.81273437 -1 45 C-5.89002343 38.59238309 -8.64371401 31.15371074 -8 23 C-7.34 24.32 -6.68 25.64 -6 27 C-5.34 27 -4.68 27 -4 27 C-4 27.66 -4 28.32 -4 29 C-3.01 28.67 -2.02 28.34 -1 28 C0.91939266 23.59311213 0.91939266 23.59311213 0 19 C-0.66 19.66 -1.32 20.32 -2 21 C-1.86179731 17.6871348 -1.71316222 14.37482011 -1.5625 11.0625 C-1.52318359 10.11697266 -1.48386719 9.17144531 -1.44335938 8.19726562 C-1.40146484 7.29814453 -1.35957031 6.39902344 -1.31640625 5.47265625 C-1.26141968 4.22367554 -1.26141968 4.22367554 -1.20532227 2.94946289 C-1 1 -1 1 0 0 Z " fill="#F3A62E" transform="translate(168,133)"/>
<path d="M0 0 C2.64 0 5.28 0 8 0 C8.66 1.98 9.32 3.96 10 6 C8.1875 8 8.1875 8 6 10 C5.01 10 4.02 10 3 10 C3.66 11.65 4.32 13.3 5 15 C4.34 15 3.68 15 3 15 C3 15.99 3 16.98 3 18 C3.763125 17.67 4.52625 17.34 5.3125 17 C9.47773748 15.87044407 13.03129625 15.88754584 17.31640625 16.02734375 C20.00796766 15.99991882 22.38437245 15.61015543 25 15 C25 15.66 25 16.32 25 17 C25.66 17.33 26.32 17.66 27 18 C26.67 18.66 26.34 19.32 26 20 C29.96 19.505 29.96 19.505 34 19 C34 19.99 34 20.98 34 22 C34.66 22.33 35.32 22.66 36 23 C36 23.66 36 24.32 36 25 C35.46632812 24.80664062 34.93265625 24.61328125 34.3828125 24.4140625 C21.48665116 19.90709954 10.07414639 18.21677571 -3 23 C-6.10696057 24.50962274 -9.05420938 26.2001543 -12 28 C-12.66 28.33 -13.32 28.66 -14 29 C-13.67 27.02 -13.34 25.04 -13 23 C-10.36 22.34 -7.72 21.68 -5 21 C-5.33 19.68 -5.66 18.36 -6 17 C-5.01 17 -4.02 17 -3 17 C-3 16.34 -3 15.68 -3 15 C-2.34 15 -1.68 15 -1 15 C-1 13.68 -1 12.36 -1 11 C-1.99 11 -2.98 11 -4 11 C-4 10.34 -4 9.68 -4 9 C-3.01 9 -2.02 9 -1 9 C-1.33 8.34 -1.66 7.68 -2 7 C-6.455 7.495 -6.455 7.495 -11 8 C-7.86768478 5.91178985 -5.56941553 5.24877798 -1.9375 4.375 C-0.87402344 4.11460938 0.18945312 3.85421875 1.28515625 3.5859375 C4 3 4 3 6 3 C4.02 2.34 2.04 1.68 0 1 C0 0.67 0 0.34 0 0 Z " fill="#F3A832" transform="translate(107,39)"/>
<path d="M0 0 C3 0 3 0 5.125 1.5625 C7.62945239 4.81828811 8.07188342 6.90264497 8 11 C6.0625 13.4375 6.0625 13.4375 3 16 C-5.09292135 23.34952147 -11.12323664 31.73797935 -15 42 C-15.33 42 -15.66 42 -16 42 C-16.13277344 41.28972656 -16.26554687 40.57945313 -16.40234375 39.84765625 C-16.66724609 38.46900391 -16.66724609 38.46900391 -16.9375 37.0625 C-17.11152344 36.14597656 -17.28554688 35.22945312 -17.46484375 34.28515625 C-17.77714988 32.04710156 -17.77714988 32.04710156 -19 31 C-19.04063832 29.33382885 -19.042721 27.66611905 -19 26 C-17.02 27.65 -15.04 29.3 -13 31 C-13 30.01 -13 29.02 -13 28 C-12.01 27.67 -11.02 27.34 -10 27 C-10.33 25.02 -10.66 23.04 -11 21 C-9 21 -7 21 -5 21 C-3.21694476 18.36107824 -2.00940379 16.02821137 -1 13 C-1.68707031 12.95101562 -2.37414062 12.90203125 -3.08203125 12.8515625 C-3.98308594 12.77679688 -4.88414063 12.70203125 -5.8125 12.625 C-7.15248047 12.52058594 -7.15248047 12.52058594 -8.51953125 12.4140625 C-11 12 -11 12 -14 10 C-12 8 -10 6 -8 4 C-5.525 4.99 -5.525 4.99 -3 6 C-3 5.34 -3 4.68 -3 4 C-3.66 4 -4.32 4 -5 4 C-5 3.34 -5 2.68 -5 2 C-3.35 2.33 -1.7 2.66 0 3 C0 2.01 0 1.02 0 0 Z " fill="#F9A416" transform="translate(53,38)"/>
<path d="M0 0 C2.475 0.99 2.475 0.99 5 2 C4.34 4.31 3.68 6.62 3 9 C3.66 9.33 4.32 9.66 5 10 C5 11.32 5 12.64 5 14 C4.34 14 3.68 14 3 14 C2.8453125 15.0828125 2.8453125 15.0828125 2.6875 16.1875 C2 19 2 19 0.5 21.3125 C-1.51361172 24.920221 -1.65235155 27.89774826 -2 32 C-2.66 32 -3.32 32 -4 32 C-4.33 32.66 -4.66 33.32 -5 34 C-5.66 32.68 -6.32 31.36 -7 30 C-6.34 30 -5.68 30 -5 30 C-5 26.37 -5 22.74 -5 19 C-5.99 19.33 -6.98 19.66 -8 20 C-8 23.3 -8 26.6 -8 30 C-9.32 30 -10.64 30 -12 30 C-12.33 25.05 -12.66 20.1 -13 15 C-12.01 15 -11.02 15 -10 15 C-9.67 12.03 -9.34 9.06 -9 6 C-8.01 6 -7.02 6 -6 6 C-5.67 4.68 -5.34 3.36 -5 2 C-4.01 2 -3.02 2 -2 2 C-2.29296875 4.01822917 -2.5859375 6.03645833 -2.87890625 8.0546875 C-3.1684297 10.08140667 -3.1684297 10.08140667 -2 12 C-1.34 12 -0.68 12 0 12 C0 8.04 0 4.08 0 0 Z " fill="#F9A50E" transform="translate(78,66)"/>
<path d="M0 0 C1.98 0.66 3.96 1.32 6 2 C5.01 3.485 5.01 3.485 4 5 C4.46530318 6.66179706 4.93998447 8.32204969 5.48046875 9.9609375 C6.66788747 14.62133278 6.51155221 19.46534338 5 24 C4.77674186 26.05893621 4.59294241 28.12233653 4.4375 30.1875 C4.35371094 31.27417969 4.26992187 32.36085937 4.18359375 33.48046875 C4.12300781 34.31191406 4.06242188 35.14335938 4 36 C3.01 36 2.02 36 1 36 C0.67 38.31 0.34 40.62 0 43 C-3 42 -3 42 -4.1875 39.9375 C-4.455625 39.298125 -4.72375 38.65875 -5 38 C-3.68 38 -2.36 38 -1 38 C-1.2784375 37.13375 -1.2784375 37.13375 -1.5625 36.25 C-2.04023546 33.79307475 -1.75729364 32.35602466 -1 30 C-1.99 30 -2.98 30 -4 30 C-4 25.38 -4 20.76 -4 16 C-2.68 16 -1.36 16 0 16 C0 15.34 0 14.68 0 14 C0.66 13.67 1.32 13.34 2 13 C0.68 12.67 -0.64 12.34 -2 12 C-2 9.36 -2 6.72 -2 4 C-1.34 4 -0.68 4 0 4 C0 2.68 0 1.36 0 0 Z " fill="#F8A414" transform="translate(163,88)"/>
<path d="M0 0 C0.33 0.66 0.66 1.32 1 2 C0.3507041 3.34187818 -0.31731862 4.67479497 -1 6 C-1 6.99 -1 7.98 -1 9 C-0.34 9 0.32 9 1 9 C0.67 9.66 0.34 10.32 0 11 C-1.32 11 -2.64 11 -4 11 C-4.04898438 11.62648438 -4.09796875 12.25296875 -4.1484375 12.8984375 C-4.22320312 13.71570313 -4.29796875 14.53296875 -4.375 15.375 C-4.44460937 16.18710938 -4.51421875 16.99921875 -4.5859375 17.8359375 C-5 20 -5 20 -7 22 C-7.33 22.99 -7.66 23.98 -8 25 C-8.66 25 -9.32 25 -10 25 C-10.75241109 28.65456815 -11.40049704 32.31733897 -12 36 C-9.64828869 35.40138258 -7.3140622 34.73075648 -5 34 C-3.36525374 30.73050748 -3.98581225 27.22843775 -4.0625 23.62890625 C-4 21 -4 21 -3 18 C-2.34 18 -1.68 18 -1 18 C-0.69610033 20.72907918 -0.4312175 23.45294492 -0.1875 26.1875 C-0.05311523 27.34088867 -0.05311523 27.34088867 0.08398438 28.51757812 C0.43946077 32.87684126 0.45851167 34.40817318 -2.32421875 38 C-5.99030146 40.74019613 -8.5226863 41 -13 41 C-13 42.65 -13 44.3 -13 46 C-12.01 46.33 -11.02 46.66 -10 47 C-10 47.66 -10 48.32 -10 49 C-11.485 49.495 -11.485 49.495 -13 50 C-13.33 51.98 -13.66 53.96 -14 56 C-11.03 56 -8.06 56 -5 56 C-5 56.33 -5 56.66 -5 57 C-8.63 57 -12.26 57 -16 57 C-16.89017431 37.44913453 -11.44255146 17.5992349 -1 1 C-0.67 0.67 -0.34 0.34 0 0 Z " fill="#F6A52E" transform="translate(189,69)"/>
<path d="M0 0 C0.66 0.33 1.32 0.66 2 1 C1 3 1 3 -1.06640625 3.8515625 C-2.30197266 4.23441406 -2.30197266 4.23441406 -3.5625 4.625 C-4.38878906 4.88539062 -5.21507812 5.14578125 -6.06640625 5.4140625 C-6.70449219 5.60742188 -7.34257812 5.80078125 -8 6 C-8 6.99 -8 7.98 -8 9 C-7.34 9 -6.68 9 -6 9 C-5.67 9.66 -5.34 10.32 -5 11 C-2.69034152 12.05352843 -0.3570226 13.05719096 2 14 C2 13.34 2 12.68 2 12 C5 13 5 13 6.6875 16.0625 C7.120625 17.031875 7.55375 18.00125 8 19 C7.01 19.61875 6.02 20.2375 5 20.875 C4.01 21.57625 3.02 22.2775 2 23 C2 23.66 2 24.32 2 25 C2 25.99 2 26.98 2 28 C2.66 28.33 3.32 28.66 4 29 C3.34 29 2.68 29 2 29 C2 29.66 2 30.32 2 31 C1.34 31 0.68 31 0 31 C-0.33 30.34 -0.66 29.68 -1 29 C-1.66 29 -2.32 29 -3 29 C-3.226875 29.61875 -3.45375 30.2375 -3.6875 30.875 C-5.37929835 33.61410209 -6.99244161 34.05024472 -10 35 C-8.57641609 30.45925821 -6.27867927 27.96026853 -2.875 24.6875 C-1.96492188 23.80449219 -1.05484375 22.92148437 -0.1171875 22.01171875 C0.58148438 21.34785156 1.28015625 20.68398438 2 20 C1.38125 20.495 0.7625 20.99 0.125 21.5 C-2 23 -2 23 -4 23 C-3.625 20.5625 -3.625 20.5625 -3 18 C-2.34 17.67 -1.68 17.34 -1 17 C-3.95377498 14.63019987 -3.95377498 14.63019987 -8 15 C-8.33 13.02 -8.66 11.04 -9 9 C-9.99 9.33 -10.98 9.66 -12 10 C-11.67 11.32 -11.34 12.64 -11 14 C-12.60875 14.4021875 -12.60875 14.4021875 -14.25 14.8125 C-17.56508928 15.86227827 -19.43877646 16.74612328 -22 19 C-18.0732071 10.31173358 -8.65595406 3.58994305 0 0 Z " fill="#F2A433" transform="translate(200,34)"/>
<path d="M0 0 C3 1 3 1 4.375 3.4375 C6.2836851 6.44734958 7.64965669 7.00395199 11 8 C7.5647952 10.29013653 6.014669 10.17842973 2 10 C1.67 11.98 1.34 13.96 1 16 C-0.32 16 -1.64 16 -3 16 C-3 16.99 -3 17.98 -3 19 C-3.99 19 -4.98 19 -6 19 C-7.4606285 16.35261084 -8 15.10551666 -8 12 C-9.65 11.67 -11.3 11.34 -13 11 C-13 11.66 -13 12.32 -13 13 C-13.99 13.33 -14.98 13.66 -16 14 C-15.5206753 9.68607774 -14.2542015 7.83430453 -11 5 C-10.67 5.99 -10.34 6.98 -10 8 C-9.01 8 -8.02 8 -7 8 C-6.67 7.34 -6.34 6.68 -6 6 C-6.66 6 -7.32 6 -8 6 C-7.67 4.68 -7.34 3.36 -7 2 C-5.68 1.67 -4.36 1.34 -3 1 C-3 3.31 -3 5.62 -3 8 C-1.68 8 -0.36 8 1 8 C1.33 6.02 1.66 4.04 2 2 C1.34 2 0.68 2 0 2 C0 1.34 0 0.68 0 0 Z " fill="#F8A410" transform="translate(92,52)"/>
<path d="M0 0 C0.33 0 0.66 0 1 0 C1 6.27 1 12.54 1 19 C1.66 19 2.32 19 3 19 C2.67 21.31 2.34 23.62 2 26 C3.32 26 4.64 26 6 26 C10.03477285 32.1132922 10.03477285 32.1132922 9.875 36.1875 C9.11086604 38.64364486 8.28306752 40.7760163 7 43 C7.99 43 8.98 43 10 43 C10 43.66 10 44.32 10 45 C10.66 45 11.32 45 12 45 C11.505 47.475 11.505 47.475 11 50 C11.66 50 12.32 50 13 50 C12.67 50.99 12.34 51.98 12 53 C0.19202871 38.90915427 -1.93500206 21.81898154 -1 4 C-0.69361399 2.66021774 -0.36711083 1.3244314 0 0 Z " fill="#F2A836" transform="translate(62,89)"/>
<path d="M0 0 C0.66 0.33 1.32 0.66 2 1 C1.52949219 1.95519531 1.05898437 2.91039062 0.57421875 3.89453125 C-5.14792598 15.68524576 -8.19162567 26.26635637 -9.2668457 39.36425781 C-9.63292127 43.59388539 -10.10911255 47.12407303 -12 51 C-13.3271261 47.0186217 -13.06915913 43.14954773 -13 39 C-14.32 39 -15.64 39 -17 39 C-16.67 37.35 -16.34 35.7 -16 34 C-15.34 34 -14.68 34 -14 34 C-14 31.69 -14 29.38 -14 27 C-13.34 27.33 -12.68 27.66 -12 28 C-11.67 28.99 -11.34 29.98 -11 31 C-8.99939983 24.38384194 -8.75753993 18.38496734 -8.875 11.5 C-8.88402344 10.48679687 -8.89304688 9.47359375 -8.90234375 8.4296875 C-8.92570993 5.95287199 -8.95846832 3.47656621 -9 1 C-8.01 1 -7.02 1 -6 1 C-6 3.97 -6 6.94 -6 10 C-3.8480563 6.77208445 -3.79913557 5.71599191 -4 2 C-3.01 2 -2.02 2 -1 2 C-0.67 1.34 -0.34 0.68 0 0 Z " fill="#F5AA36" transform="translate(225,51)"/>
<path d="M0 0 C5.72297781 5.28274875 5.72297781 5.28274875 6 9 C4.890625 12.20703125 4.890625 12.20703125 3.25 15.8125 C2.71890625 16.99457031 2.1878125 18.17664063 1.640625 19.39453125 C1.09921875 20.58433594 0.5578125 21.77414063 0 23 C-1.01175477 25.32850719 -2.00676268 27.66349894 -3 30 C-3.66 30 -4.32 30 -5 30 C-5.24234375 29.49210937 -5.4846875 28.98421875 -5.734375 28.4609375 C-7.87798137 24.05829981 -10.19200344 20.01142366 -13 16 C-11.20994059 15.63779734 -9.41787943 15.28547531 -7.625 14.9375 C-6.62726563 14.74027344 -5.62953125 14.54304688 -4.6015625 14.33984375 C-2 14 -2 14 0 15 C0.33 14.01 0.66 13.02 1 12 C1.66 12 2.32 12 3 12 C3 10.68 3 9.36 3 8 C2.34 7.67 1.68 7.34 1 7 C0.38812962 4.61370553 0 2.46459429 0 0 Z " fill="#F6A724" transform="translate(164,55)"/>
<path d="M0 0 C0.99 0.66 1.98 1.32 3 2 C3.99 2.33 4.98 2.66 6 3 C6 3.99 6 4.98 6 6 C4.35 6 2.7 6 1 6 C1.33 7.65 1.66 9.3 2 11 C2.99 11 3.98 11 5 11 C5 10.01 5 9.02 5 8 C5.99 8 6.98 8 8 8 C8.33 9.32 8.66 10.64 9 12 C8.01 12.33 7.02 12.66 6 13 C6 14.32 6 15.64 6 17 C-2.38709677 16.03225806 -2.38709677 16.03225806 -5 14 C-7.23795392 9.41752292 -7.15810667 5.92195333 -6 1 C-4 0 -4 0 0 0 Z " fill="#FAA311" transform="translate(122,29)"/>
<path d="M0 0 C2.4375 0.8125 2.4375 0.8125 5 2 C5.33 2.99 5.66 3.98 6 5 C6.69867188 4.84402344 7.39734375 4.68804687 8.1171875 4.52734375 C9.48230469 4.23537109 9.48230469 4.23537109 10.875 3.9375 C11.77992187 3.74027344 12.68484375 3.54304688 13.6171875 3.33984375 C16 3 16 3 18 4 C18 4.99 18 5.98 18 7 C16.35 7 14.7 7 13 7 C12.34 8.32 11.68 9.64 11 11 C10.27554688 10.98839844 9.55109375 10.97679687 8.8046875 10.96484375 C3.75216677 10.91768689 -1.03378767 10.92622436 -6 12 C-6 11.01 -6 10.02 -6 9 C-5.34 9 -4.68 9 -4 9 C-4.66 7.35 -5.32 5.7 -6 4 C-5.195625 3.525625 -4.39125 3.05125 -3.5625 2.5625 C-1.15246512 1.23099846 -1.15246512 1.23099846 0 0 Z " fill="#F9A511" transform="translate(116,45)"/>
<path d="M0 0 C0 0.99 0 1.98 0 3 C-2.97 3.99 -5.94 4.98 -9 6 C-9 6.66 -9 7.32 -9 8 C-6.03 8.33 -3.06 8.66 0 9 C-0.875 14.875 -0.875 14.875 -2 16 C-3.68608966 16.07205511 -5.37500659 16.08386068 -7.0625 16.0625 C-7.98160156 16.05347656 -8.90070313 16.04445312 -9.84765625 16.03515625 C-10.55792969 16.02355469 -11.26820313 16.01195312 -12 16 C-12 15.34 -12 14.68 -12 14 C-10.02 14 -8.04 14 -6 14 C-6 13.01 -6 12.02 -6 11 C-8.97 10.505 -8.97 10.505 -12 10 C-12 8 -12 8 -11 7 C-12.46759766 7.05220703 -12.46759766 7.05220703 -13.96484375 7.10546875 C-21.55501447 7.26219794 -27.95445965 7.15834567 -35 4 C-35.33 3.34 -35.66 2.68 -36 2 C-34.845 2.33 -33.69 2.66 -32.5 3 C-21.33698671 5.42980415 -10.38113183 4.92663884 0 0 Z " fill="#F7A520" transform="translate(140,142)"/>
<path d="M0 0 C0.66 0.33 1.32 0.66 2 1 C2.14285714 9.57142857 2.14285714 9.57142857 1 13 C1.66 13 2.32 13 3 13 C3.33 11.68 3.66 10.36 4 9 C4.66 9 5.32 9 6 9 C6.33 9.99 6.66 10.98 7 12 C6.67 12.66 6.34 13.32 6 14 C5.01 14 4.02 14 3 14 C3.33 14.99 3.66 15.98 4 17 C5.65 17.33 7.3 17.66 9 18 C8.855625 18.68964844 8.71125 19.37929687 8.5625 20.08984375 C7.35792213 26.1880192 6.79631588 31.78763445 7 38 C5 37 5 37 4.25390625 35.20703125 C3.46632734 32.47942746 2.71652034 29.74724383 2 27 C1.70480469 25.90429688 1.40960937 24.80859375 1.10546875 23.6796875 C-0.90466853 15.47392161 -1.15280805 8.36133069 0 0 Z " fill="#F2A533" transform="translate(17,98)"/>
<path d="M0 0 C0.33 0.66 0.66 1.32 1 2 C4.3 2 7.6 2 11 2 C10.34 3.32 9.68 4.64 9 6 C8.34 6 7.68 6 7 6 C7 6.66 7 7.32 7 8 C5.68 7.67 4.36 7.34 3 7 C3 7.99 3 8.98 3 10 C2.34 10 1.68 10 1 10 C0.34 11.32 -0.32 12.64 -1 14 C-1.33 13.01 -1.66 12.02 -2 11 C-2.99 11 -3.98 11 -5 11 C-5 11.66 -5 12.32 -5 13 C-5.66 13 -6.32 13 -7 13 C-7 13.66 -7 14.32 -7 15 C-6.34 15.33 -5.68 15.66 -5 16 C-5.99 16.33 -6.98 16.66 -8 17 C-10.125 12.375 -10.125 12.375 -9 9 C-9 9.66 -9 10.32 -9 11 C-8.34 11 -7.68 11 -7 11 C-7 10.34 -7 9.68 -7 9 C-6.34 9 -5.68 9 -5 9 C-5 8.34 -5 7.68 -5 7 C-3.35 7 -1.7 7 0 7 C-2.71549154 4.69328085 -2.71549154 4.69328085 -5.1875 5.375 C-6.0846875 5.684375 -6.0846875 5.684375 -7 6 C-6.67 4.68 -6.34 3.36 -6 2 C-4.02 2 -2.04 2 0 2 C0 1.34 0 0.68 0 0 Z " fill="#F9A410" transform="translate(233,25)"/>
<path d="M0 0 C0.76957031 0.04261963 1.53914063 0.08523926 2.33203125 0.12915039 C22.21382647 1.52632647 22.21382647 1.52632647 27.5 6.8125 C21.7190275 6.18184845 16.1556294 5.16094868 10.5 3.8125 C10.17 4.8025 9.84 5.7925 9.5 6.8125 C8.51 6.4825 7.52 6.1525 6.5 5.8125 C6.5 5.1525 6.5 4.4925 6.5 3.8125 C2.354303 3.7245432 -1.79115012 3.67178847 -5.9375 3.625 C-7.10216797 3.59986328 -8.26683594 3.57472656 -9.46679688 3.54882812 C-15.67709818 3.49634671 -20.87707079 3.78023719 -26.66015625 6.14453125 C-29.29329496 7.10051155 -31.73590745 7.0251225 -34.5 6.8125 C-31.13807378 3.83336736 -28.11766268 3.05531071 -23.75 2.1875 C-22.57953125 1.94773437 -21.4090625 1.70796875 -20.203125 1.4609375 C-13.32484306 0.2565126 -6.95920505 -0.3887609 0 0 Z " fill="#EFA944" transform="translate(101.5,22.1875)"/>
<path d="M0 0 C2 3 2 3 1.8125 6.0625 C1 9 1 9 -2 11 C-7.44444444 10.55555556 -7.44444444 10.55555556 -10 8 C-10.375 5.0625 -10.375 5.0625 -10 2 C-6.96457461 -1.61916104 -4.32701626 -1.31691799 0 0 Z " fill="#FDFDFD" transform="translate(878,51)"/>
<path d="M0 0 C0.33 0 0.66 0 1 0 C1 2.64 1 5.28 1 8 C2.32 7.67 3.64 7.34 5 7 C5.33 7.99 5.66 8.98 6 10 C5.01 10 4.02 10 3 10 C3 10.66 3 11.32 3 12 C1.68 12 0.36 12 -1 12 C-1 16.62 -1 21.24 -1 26 C-0.01 26 0.98 26 2 26 C2 28.64 2 31.28 2 34 C1.401875 34.04125 0.80375 34.0825 0.1875 34.125 C-2.31666667 34.87291667 -2.31666667 34.87291667 -3.75 37.875 C-5.18569534 40.90328368 -5.18569534 40.90328368 -5 44 C-6.32 43.67 -7.64 43.34 -9 43 C-7.9333719 40.78469548 -6.83009323 38.74420629 -5.46704102 36.69213867 C-3.87910267 33.77814364 -3.53855199 31.90049987 -3.33984375 28.61328125 C-3.26830078 27.59169922 -3.19675781 26.57011719 -3.12304688 25.51757812 C-3.06181641 24.45990234 -3.00058594 23.40222656 -2.9375 22.3125 C-2.4612329 14.71580395 -1.71226779 7.42671614 0 0 Z " fill="#F0A83E" transform="translate(160,92)"/>
<path d="M0 0 C1.8125 1.125 1.8125 1.125 3 3 C3.4375 6 3.4375 6 3 9 C1.375 10.9375 1.375 10.9375 -1 12 C-4.125 11.9375 -4.125 11.9375 -7 11 C-8.5 9.3125 -8.5 9.3125 -9 7 C-8.25 3.8125 -8.25 3.8125 -7 1 C-4.45132831 -0.27433584 -2.82594567 -0.27570202 0 0 Z " fill="#FDFDFD" transform="translate(790,115)"/>
<path d="M0 0 C0.99 0.33 1.98 0.66 3 1 C2.21496094 1.66644531 1.42992188 2.33289062 0.62109375 3.01953125 C-8.26936502 10.7479033 -14.78582129 18.84482106 -19 30 C-19.33 30 -19.66 30 -20 30 C-20.13277344 29.28972656 -20.26554687 28.57945313 -20.40234375 27.84765625 C-20.57894531 26.92855469 -20.75554688 26.00945312 -20.9375 25.0625 C-21.11152344 24.14597656 -21.28554688 23.22945312 -21.46484375 22.28515625 C-21.77714988 20.04710156 -21.77714988 20.04710156 -23 19 C-23.04063832 17.33382885 -23.042721 15.66611905 -23 14 C-21.02 15.65 -19.04 17.3 -17 19 C-17 18.01 -17 17.02 -17 16 C-16.01 15.67 -15.02 15.34 -14 15 C-14.33 13.02 -14.66 11.04 -15 9 C-13 9 -11 9 -9 9 C-7.9935725 7.33720673 -6.99414593 5.67016516 -6 4 C-3 2 -3 2 0 2 C0 1.34 0 0.68 0 0 Z " fill="#F4AA38" transform="translate(57,50)"/>
<path d="M0 0 C2 2 2 2 2 6 C1.01 6 0.02 6 -1 6 C-1 5.01 -1 4.02 -1 3 C-2.32 3 -3.64 3 -5 3 C-5 3.66 -5 4.32 -5 5 C-4.34 5 -3.68 5 -3 5 C-2.67 6.98 -2.34 8.96 -2 11 C-3.98 11.33 -5.96 11.66 -8 12 C-8 12.33 -8 12.66 -8 13 C-9.65 13 -11.3 13 -13 13 C-13.66 11.68 -14.32 10.36 -15 9 C-11.535 8.505 -11.535 8.505 -8 8 C-10.31 7.67 -12.62 7.34 -15 7 C-14.34 6.34 -13.68 5.68 -13 5 C-11.68 5 -10.36 5 -9 5 C-9 3.68 -9 2.36 -9 1 C-5.98675805 -0.50662097 -3.31713623 -0.17770373 0 0 Z " fill="#FAA321" transform="translate(97,25)"/>
<path d="M0 0 C1.32 0 2.64 0 4 0 C4 0.66 4 1.32 4 2 C5.32 2.33 6.64 2.66 8 3 C7.34 3 6.68 3 6 3 C6 3.66 6 4.32 6 5 C6.66 4.67 7.32 4.34 8 4 C11.86061033 2.71312989 14.94150283 2.86242382 19 3 C9.94058873 9.03960751 -2.80813917 8.28901963 -13.25 8.3125 C-14.45269531 8.31781738 -15.65539062 8.32313477 -16.89453125 8.32861328 C-25.6130864 8.2579424 -25.6130864 8.2579424 -29 6 C-28.26362305 6.01571045 -27.52724609 6.0314209 -26.76855469 6.04760742 C-23.42911471 6.11000472 -20.08979745 6.14900618 -16.75 6.1875 C-15.01169922 6.22520508 -15.01169922 6.22520508 -13.23828125 6.26367188 C-12.12324219 6.27333984 -11.00820312 6.28300781 -9.859375 6.29296875 C-8.31975098 6.31653442 -8.31975098 6.31653442 -6.74902344 6.34057617 C-3.59450011 5.94976267 -2.21338842 5.26134738 0 3 C0 2.01 0 1.02 0 0 Z " fill="#F0A73B" transform="translate(109,174)"/>
<path d="M0 0 C3.73487777 0.4979837 5.81237635 0.87491756 9 3 C8.690625 3.8353125 8.690625 3.8353125 8.375 4.6875 C7.89304789 7.659538 8.73434972 9.31979941 10 12 C4.40883978 11.11049724 4.40883978 11.11049724 1.6875 10.375 C1.130625 10.25125 0.57375 10.1275 0 10 C-0.33 10.33 -0.66 10.66 -1 11 C-4.72224599 11.29386153 -5.77786243 11.14809171 -9 9 C-8.67 8.01 -8.34 7.02 -8 6 C-5.69 6.33 -3.38 6.66 -1 7 C-0.01 5.68 0.98 4.36 2 3 C1.34 2.67 0.68 2.34 0 2 C0 1.34 0 0.68 0 0 Z " fill="#F9A40D" transform="translate(61,159)"/>
<path d="M0 0 C0.33 0.66 0.66 1.32 1 2 C0.3507041 3.34187818 -0.31731862 4.67479497 -1 6 C-1 6.99 -1 7.98 -1 9 C-0.34 9 0.32 9 1 9 C0.67 9.66 0.34 10.32 0 11 C-1.32 11 -2.64 11 -4 11 C-4.04898438 11.62648438 -4.09796875 12.25296875 -4.1484375 12.8984375 C-4.22320312 13.71570313 -4.29796875 14.53296875 -4.375 15.375 C-4.44460937 16.18710938 -4.51421875 16.99921875 -4.5859375 17.8359375 C-5 20 -5 20 -7 22 C-7.33 22.99 -7.66 23.98 -8 25 C-8.66 25 -9.32 25 -10 25 C-10.8441938 28.97977076 -11.44687265 32.97007218 -12 37 C-12.66 37 -13.32 37 -14 37 C-13.44741647 31.2076244 -12.29566781 26.14859729 -10.3125 20.6875 C-10.04993408 19.95273438 -9.78736816 19.21796875 -9.5168457 18.4609375 C-4.30165442 4.30165442 -4.30165442 4.30165442 0 0 Z " fill="#ECA741" transform="translate(189,69)"/>
<path d="M0 0 C0.66 0.33 1.32 0.66 2 1 C1.34 2.32 0.68 3.64 0 5 C-0.66 5 -1.32 5 -2 5 C-2 5.66 -2 6.32 -2 7 C-1.34 7 -0.68 7 0 7 C-0.33 8.98 -0.66 10.96 -1 13 C-2.32 13 -3.64 13 -5 13 C-5.33 11.02 -5.66 9.04 -6 7 C-6.99 7.33 -7.98 7.66 -9 8 C-9.33 8.99 -9.66 9.98 -10 11 C-9.34 11 -8.68 11 -8 11 C-8.66 12.32 -9.32 13.64 -10 15 C-10 14.34 -10 13.68 -10 13 C-10.66 13 -11.32 13 -12 13 C-12.33 12.34 -12.66 11.68 -13 11 C-13.99 11 -14.98 11 -16 11 C-5.05945946 1.8972973 -5.05945946 1.8972973 0 0 Z " fill="#F4A731" transform="translate(94,47)"/>
<path d="M0 0 C0.33 0.66 0.66 1.32 1 2 C1.66 2.33 2.32 2.66 3 3 C2.67 3.33 2.34 3.66 2 4 C1.84417697 5.34015221 1.74955858 6.68758903 1.68359375 8.03515625 C1.64169922 8.84404297 1.59980469 9.65292969 1.55664062 10.48632812 C1.51732422 11.33646484 1.47800781 12.18660156 1.4375 13.0625 C1.39431641 13.91650391 1.35113281 14.77050781 1.30664062 15.65039062 C1.20023298 17.76672037 1.09958269 19.88333813 1 22 C1.66 21.67 2.32 21.34 3 21 C3.91893304 24.59219279 4.25145386 26.42165612 2.75 29.875 C2.1725 30.57625 1.595 31.2775 1 32 C0.01 32 -0.98 32 -2 32 C-1.98259766 30.80503906 -1.98259766 30.80503906 -1.96484375 29.5859375 C-1.89264524 22.95266567 -1.89264524 22.95266567 -2.625 16.375 C-2.74875 15.59125 -2.8725 14.8075 -3 14 C-2.34 13.34 -1.68 12.68 -1 12 C-0.78323592 8.60402937 -0.91926148 6.24221555 -2 3 C-1.34 3 -0.68 3 0 3 C0 2.01 0 1.02 0 0 Z " fill="#F9A60C" transform="translate(166,130)"/>
<path d="M0 0 C12.61137535 1.49026592 24.60864504 11.69708265 32.6875 21.0625 C33.450625 22.031875 34.21375 23.00125 35 24 C34.67 24.66 34.34 25.32 34 26 C32.62437146 24.71034824 31.29233607 23.37310707 30 22 C30 21.34 30 20.68 30 20 C29.01 20 28.02 20 27 20 C25.5 18.50390625 25.5 18.50390625 24 16.5625 C21.62300315 13.49568071 21.62300315 13.49568071 18 12 C18 11.34 18 10.68 18 10 C17.34 10 16.68 10 16 10 C16 9.34 16 8.68 16 8 C15.21625 7.855625 14.4325 7.71125 13.625 7.5625 C11 7 11 7 9 6 C9 5.34 9 4.68 9 4 C6.03 3.01 3.06 2.02 0 1 C0 0.67 0 0.34 0 0 Z " fill="#EFAA4B" transform="translate(129,29)"/>
<path d="M0 0 C0 0.33 0 0.66 0 1 C-1.98 1 -3.96 1 -6 1 C-6.66 2.32 -7.32 3.64 -8 5 C-10.31 4.34 -12.62 3.68 -15 3 C-15.33 3.99 -15.66 4.98 -16 6 C-17.74784829 6.36463732 -19.49840502 6.7163078 -21.25 7.0625 C-22.22453125 7.25972656 -23.1990625 7.45695312 -24.203125 7.66015625 C-26.868119 7.98397535 -28.48871723 7.85503199 -31 7 C-9.21486124 -2.94538944 -9.21486124 -2.94538944 0 0 Z " fill="#F0A741" transform="translate(233,26)"/>
<path d="M0 0 C2.71191737 2.62309911 5.09942405 5.30510736 7.375 8.3125 C10.45618616 12.33201715 13.67100333 16.18383308 17 20 C15.35 20.33 13.7 20.66 12 21 C11.79375 20.13375 11.5875 19.2675 11.375 18.375 C9.72092323 14.31499339 7.534806 11.59613742 4 9 C1.96683624 8.37440044 1.96683624 8.37440044 0 8 C-0.66 7.67 -1.32 7.34 -2 7 C-2 6.01 -2 5.02 -2 4 C-1.01 4 -0.02 4 1 4 C0.67 2.68 0.34 1.36 0 0 Z " fill="#F5AA3A" transform="translate(40,133)"/>
<path d="M0 0 C5.72297781 5.28274875 5.72297781 5.28274875 6 9 C4.890625 12.20703125 4.890625 12.20703125 3.25 15.8125 C2.71890625 16.99457031 2.1878125 18.17664063 1.640625 19.39453125 C1.09921875 20.58433594 0.5578125 21.77414063 0 23 C-1.01175477 25.32850719 -2.00676268 27.66349894 -3 30 C-3.66 30 -4.32 30 -5 30 C-4.71517632 28.58194169 -4.42181856 27.16559621 -4.125 25.75 C-3.96257812 24.96109375 -3.80015625 24.1721875 -3.6328125 23.359375 C-3.00849925 21.03168856 -2.15161458 19.10968048 -1 17 C-0.34 17 0.32 17 1 17 C1 15.35 1 13.7 1 12 C1.66 12 2.32 12 3 12 C3 10.68 3 9.36 3 8 C2.34 7.67 1.68 7.34 1 7 C0.38812962 4.61370553 0 2.46459429 0 0 Z " fill="#ECA843" transform="translate(164,55)"/>
<path d="M0 0 C0 2.8996083 -0.21438138 5.21462489 -1 8 C-1.99 8.66 -2.98 9.32 -4 10 C-4.33 10.99 -4.66 11.98 -5 13 C-5.99 13 -6.98 13 -8 13 C-8.33 15.97 -8.66 18.94 -9 22 C-9.99 22 -10.98 22 -12 22 C-12 24.31 -12 26.62 -12 29 C-12.66 29.33 -13.32 29.66 -14 30 C-13.45787877 18.7961613 -7.96476306 7.96476306 0 0 Z " fill="#EEA647" transform="translate(77,59)"/>
<path d="M0 0 C-2.39348898 7.04405046 -7.57560349 11.96013038 -13.8984375 15.7265625 C-21.04678096 19.15700078 -21.04678096 19.15700078 -24.32421875 18.6171875 C-24.87722656 18.41351563 -25.43023437 18.20984375 -26 18 C-25.37351563 17.73445313 -24.74703125 17.46890625 -24.1015625 17.1953125 C-23.28429687 16.84210938 -22.46703125 16.48890625 -21.625 16.125 C-20.81289062 15.77695313 -20.00078125 15.42890625 -19.1640625 15.0703125 C-16.86197701 14.07553933 -16.86197701 14.07553933 -15 12 C-14.360625 11.87625 -13.72125 11.7525 -13.0625 11.625 C-10.32098847 10.79423893 -9.62097963 9.28410767 -8 7 C-7.34 7 -6.68 7 -6 7 C-6 4.69 -6 2.38 -6 0 C-3.50907189 -1.24546405 -2.58919267 -0.7767578 0 0 Z " fill="#F1AC43" transform="translate(210,106)"/>
<path d="M0 0 C5.27749285 0.53851968 9.25645564 1.77343836 14 4 C14 4.66 14 5.32 14 6 C16.31 6.66 18.62 7.32 21 8 C21 8.66 21 9.32 21 10 C21.66 10.33 22.32 10.66 23 11 C15.45191661 11.37121722 15.45191661 11.37121722 13.25 9.5625 C12.8375 9.046875 12.425 8.53125 12 8 C9.89667109 7.28552357 9.89667109 7.28552357 8 7 C8 6.01 8 5.02 8 4 C7.34 4 6.68 4 6 4 C6 3.34 6 2.68 6 2 C3.03 1.505 3.03 1.505 0 1 C0 0.67 0 0.34 0 0 Z " fill="#F8A50D" transform="translate(124,29)"/>
<path d="M0 0 C2.12472576 -0.05386629 4.24983652 -0.09273071 6.375 -0.125 C7.55835938 -0.14820312 8.74171875 -0.17140625 9.9609375 -0.1953125 C13 0 13 0 15 2 C14.01 2.33 13.02 2.66 12 3 C12 3.66 12 4.32 12 5 C10.35546875 6.62109375 10.35546875 6.62109375 8.1875 8.4375 C5.68897282 10.54463676 3.2757944 12.65241398 1 15 C0.67 13.35 0.34 11.7 0 10 C0.66 10 1.32 10 2 10 C2 9.01 2 8.02 2 7 C3.32 7.33 4.64 7.66 6 8 C6 7.34 6 6.68 6 6 C6.99 5.01 7.98 4.02 9 3 C6.03 2.67 3.06 2.34 0 2 C0 1.34 0 0.68 0 0 Z " fill="#EEAC48" transform="translate(234,25)"/>
<path d="M0 0 C0 0.99 0 1.98 0 3 C-10.01206845 7.66258489 -20.6894223 8.94297397 -31.375 5.625 C-35 4 -35 4 -36 2 C-34.845 2.33 -33.69 2.66 -32.5 3 C-21.33698671 5.42980415 -10.38113183 4.92663884 0 0 Z " fill="#EAAA4F" transform="translate(140,142)"/>
<path d="M0 0 C0.66 0 1.32 0 2 0 C1.67 2.31 1.34 4.62 1 7 C1.66 7.33 2.32 7.66 3 8 C3 8.66 3 9.32 3 10 C2.360625 10.12375 1.72125 10.2475 1.0625 10.375 C0.381875 10.58125 -0.29875 10.7875 -1 11 C-1.33 11.66 -1.66 12.32 -2 13 C-3.44637732 13.90858536 -4.93204144 14.75557421 -6.4375 15.5625 C-7.24058594 15.99691406 -8.04367188 16.43132812 -8.87109375 16.87890625 C-10.24015372 17.59986077 -11.61606341 18.3080317 -13 19 C-12.67 17.02 -12.34 15.04 -12 13 C-9.36 12.34 -6.72 11.68 -4 11 C-4.33 9.68 -4.66 8.36 -5 7 C-4.01 7 -3.02 7 -2 7 C-2 6.34 -2 5.68 -2 5 C-1.34 5 -0.68 5 0 5 C0 3.35 0 1.7 0 0 Z " fill="#F5A824" transform="translate(106,49)"/>
<path d="M0 0 C2 1 2 1 2 1 Z " fill="#FFFFFF" transform="translate(871,67)"/>
<path d="" fill="#FFFFFF" transform="translate(0,0)"/>
</svg>
